<?xml version="1.0" encoding="utf-8"?>
<!-- Generator: Adobe Illustrator 22.1.0, SVG Export Plug-In . SVG Version: 6.00 Build 0)  -->
<svg version="1.1" id="Слой_1" xmlns="http://www.w3.org/2000/svg" xmlns:xlink="http://www.w3.org/1999/xlink" x="0px" y="0px"
	 viewBox="0 0 824.2 202.3" style="enable-background:new 0 0 824.2 202.3;" xml:space="preserve">
<style type="text/css">
	.st0{fill:#FFFFFF;}
</style>
<g>
	<path class="st0" d="M190.3,52l4.6-13.7h-40.4L149.8,52h13.3l-11.6,34.9c-6.7-3.5-14.4-6.8-23.1-9.7c-6.3-2-11.2-4-14.8-5.9
		c-3.6-1.9-6.8-4.1-9.6-6.5c-6.3-5.2-9.4-12.3-9.4-21.3c0-5.3,1.4-10.7,4.3-15.9c2.9-5.3,6.8-9.5,11.8-12.9
		c6.1-3.9,12.7-5.8,19.9-5.8c9,0,17.6,3,25.8,9c1.2,0.9,2.6,2.1,3.9,3.2l3.6-10.8c-2.2-1.6-4.6-3.1-6.6-4.1c-8-4.2-17.7-6.2-29-6.2
		c-16.6,0-30.3,4.8-41,14.4C76.6,24,71.3,35.7,71.3,49.5c0,2.8,0.1,4.8,0.3,6.1c0.2,1.3,0.6,3.2,1.1,5.8c2.8,11.3,7.8,20.1,15,26.6
		c1.3,1.2,2.8,2.4,4.5,3.6l-20.9,63.9L35.7,52H45l-4.6-13.7H0L4.6,52h7.8L62,202.3L99.8,96.5c7.3,4.3,16.8,8.9,28.5,13.9
		c5,2.1,9.4,4.4,13.1,6.7L113,202.3l15.6,0l0,0c17.2-0.1,31.5-5.5,42.8-16.5c11.4-11,17-24.5,17-40.5c0-5.3-0.6-10.6-1.9-15.8
		c-3.3-12.5-9.2-22.8-17.7-30.7c-1.3-1.2-2.6-2.3-4.1-3.5L179.3,52H190.3z M151.5,183c-5.4,5.1-11.9,8.3-19.6,9.6l21.8-64.6
		c3.4,4.6,5.9,10.3,7.3,17c0.9,4.2,1.4,7.9,1.4,11.1C162.4,167.1,158.8,176.1,151.5,183z"/>
	<g>
		<g>
			<polygon class="st0" points="298.6,104.2 284.2,67.7 270.4,104 254.6,63.8 245.7,63.8 266.7,117.1 269.7,117.1 282.3,84.2 
				295.3,117.1 298,117.1 318.4,63.8 314,63.8 			"/>
			<path class="st0" d="M371.1,70.6c-2.6-2.5-5.7-4.4-9.2-5.8c-3.5-1.4-7.4-2.1-11.5-2.1c-2.7,0-5.4,0.3-7.9,1
				c-2.5,0.7-4.8,1.6-7,2.7c-2.2,1.2-4.1,2.6-5.9,4.3c-1.8,1.7-3.3,3.5-4.5,5.5c-1.2,2-2.2,4.2-2.9,6.5c-0.7,2.3-1,4.7-1,7.3
				c0,2.6,0.3,5,1,7.4c0.7,2.4,1.6,4.6,2.9,6.7c1.2,2.1,2.7,4,4.5,5.7c1.8,1.7,3.7,3.2,5.9,4.4c2.2,1.2,4.5,2.2,7,2.8
				c2.5,0.7,5.1,1,7.9,1c2.7,0,5.4-0.3,7.9-1c2.5-0.7,4.8-1.6,7-2.8c2.2-1.2,4.1-2.7,5.9-4.4c1.8-1.7,3.3-3.6,4.5-5.7
				c1.2-2.1,2.2-4.3,2.9-6.7c0.7-2.4,1-4.9,1-7.4c0-3.8-0.8-7.3-2.3-10.6C375.8,76,373.7,73.1,371.1,70.6z M367.9,100.1
				c-0.8,3.1-2,5.8-3.6,8c-1.6,2.3-3.5,4-5.9,5.3c-2.3,1.3-5,1.9-8,1.9c-3.1,0-5.8-0.6-8.1-1.9c-2.3-1.3-4.3-3-5.9-5.3
				c-1.6-2.3-2.8-4.9-3.5-8c-0.8-3.1-1.2-6.5-1.2-10.1c0-3.6,0.4-7,1.2-10c0.8-3,2-5.6,3.5-7.8c1.6-2.2,3.5-3.9,5.9-5.1
				c2.3-1.2,5.1-1.8,8.1-1.8c3,0,5.7,0.6,8,1.8c2.3,1.2,4.3,2.9,5.9,5.1c1.6,2.2,2.8,4.8,3.6,7.8c0.8,3,1.2,6.3,1.2,10
				C369.1,93.6,368.7,97,367.9,100.1z"/>
			<path class="st0" d="M446.5,89.9c0-3.8-0.8-7.3-2.3-10.6c-1.5-3.3-3.6-6.2-6.2-8.7c-2.6-2.5-5.7-4.4-9.2-5.8
				c-3.5-1.4-7.4-2.1-11.5-2.1c-2.7,0-5.4,0.3-7.9,1c-2.5,0.7-4.8,1.6-7,2.7c-2.2,1.2-4.1,2.6-5.9,4.3c-1.8,1.7-3.3,3.5-4.5,5.5
				c-1.2,2-2.2,4.2-2.9,6.5c-0.7,2.3-1,4.7-1,7.3c0,2.6,0.3,5,1,7.4c0.7,2.4,1.6,4.6,2.9,6.7c1.2,2.1,2.7,4,4.5,5.7
				c1.8,1.7,3.7,3.2,5.9,4.4c2.2,1.2,4.5,2.2,7,2.8c2.5,0.7,5.1,1,7.9,1c2.7,0,5.4-0.3,7.9-1c2.5-0.7,4.8-1.6,7-2.8
				c2.2-1.2,4.1-2.7,5.9-4.4c1.8-1.7,3.3-3.6,4.5-5.7c1.2-2.1,2.2-4.3,2.9-6.7C446.2,94.9,446.5,92.5,446.5,89.9z M434.9,100.1
				c-0.8,3.1-2,5.8-3.6,8c-1.6,2.3-3.5,4-5.9,5.3c-2.3,1.3-5,1.9-8,1.9c-3.1,0-5.8-0.6-8.1-1.9c-2.3-1.3-4.3-3-5.9-5.3
				c-1.6-2.3-2.8-4.9-3.5-8c-0.8-3.1-1.2-6.5-1.2-10.1c0-3.6,0.4-7,1.2-10c0.8-3,2-5.6,3.5-7.8c1.6-2.2,3.5-3.9,5.9-5.1
				c2.3-1.2,5.1-1.8,8.1-1.8c3,0,5.7,0.6,8,1.8c2.3,1.2,4.3,2.9,5.9,5.1c1.6,2.2,2.8,4.8,3.6,7.8c0.8,3,1.2,6.3,1.2,10
				C436.1,93.6,435.7,97,434.9,100.1z"/>
			<path class="st0" d="M498.9,70.2c-2.6-2.2-5.9-3.9-9.8-4.9c-3.9-1-8.6-1.5-14-1.5h-17.5v52.9h19.7c4.9,0,9.3-0.7,13.1-2.1
				c3.8-1.4,7-3.3,9.6-5.8c2.6-2.4,4.6-5.3,5.9-8.6c1.4-3.3,2-6.8,2-10.5c0-3.9-0.8-7.5-2.3-10.8C504.2,75.6,501.9,72.7,498.9,70.2z
				 M495.8,99.8c-1.1,2.8-2.7,5.2-4.6,7.2c-1.9,1.9-4.2,3.4-6.9,4.4c-2.6,1-5.5,1.5-8.5,1.5h-9.4V67.7h9.5c3.1,0,6,0.5,8.7,1.6
				c2.6,1.1,4.9,2.6,6.8,4.6c1.9,2,3.4,4.3,4.5,7c1.1,2.7,1.6,5.7,1.6,9C497.5,93.6,496.9,96.9,495.8,99.8z"/>
			<path class="st0" d="M547,93.6c-1.4-1.3-3-2.4-4.8-3.5c-1.8-1.1-3.6-2.1-5.5-3.1c-1.9-1-3.7-1.9-5.5-2.9c-1.8-1-3.4-1.9-4.8-3
				c-1.4-1-2.5-2.1-3.4-3.3c-0.8-1.1-1.3-2.4-1.3-3.8c0-1,0.2-1.9,0.6-2.9c0.4-1,1-1.8,1.9-2.6c0.8-0.8,1.9-1.4,3.1-1.8
				c1.3-0.5,2.7-0.7,4.4-0.7c1.9,0,3.6,0.3,5,0.8c1.5,0.5,2.8,1.3,4,2.2c1.1,1,2.1,2.1,2.9,3.4c0.8,1.3,1.5,2.8,2,4.5l4.6-2.1
				c-1.3-4-3.4-7-6.3-9.1c-2.9-2.1-6.9-3.1-11.9-3.1c-2.8,0-5.2,0.4-7.4,1.1c-2.1,0.7-4,1.7-5.4,3c-1.5,1.3-2.6,2.8-3.3,4.5
				c-0.8,1.7-1.1,3.6-1.1,5.6c0,2,0.4,3.8,1.3,5.4c0.8,1.5,1.9,2.9,3.3,4.2c1.4,1.2,2.9,2.4,4.6,3.4c1.7,1,3.5,2,5.4,2.9
				c1.8,0.9,3.6,1.9,5.4,2.8c1.7,0.9,3.3,1.9,4.6,3c1.4,1.1,2.4,2.2,3.3,3.5c0.8,1.3,1.2,2.7,1.2,4.3c0,1.3-0.3,2.5-0.9,3.5
				c-0.6,1-1.4,1.9-2.4,2.6c-1,0.7-2.1,1.2-3.4,1.6c-1.3,0.4-2.6,0.5-3.9,0.5c-3.5,0-6.5-1-9.1-2.9c-2.6-1.9-4.4-4.6-5.5-8.1l-4.8,2
				c0.7,2,1.6,3.7,2.7,5.2c1.1,1.5,2.4,2.8,3.9,3.9c1.5,1.1,3.3,1.9,5.3,2.4c2,0.6,4.3,0.8,6.8,0.8c3.1,0,5.9-0.4,8.3-1.2
				c2.4-0.8,4.4-1.9,5.9-3.3c1.6-1.4,2.8-3,3.6-4.8c0.8-1.8,1.2-3.8,1.2-5.9c0-1.8-0.4-3.5-1.3-5C549.6,96.2,548.4,94.8,547,93.6z"
				/>
			<polygon class="st0" points="556.6,67.2 575.8,67.2 575.8,116.7 584.6,116.7 584.6,67.2 603.8,67.2 603.8,63.8 556.6,63.8 			"/>
			<path class="st0" d="M636.5,91c1.9-0.4,3.7-1.1,5.2-1.9c1.6-0.8,3-1.8,4.1-3c1.1-1.1,2-2.4,2.7-3.9c0.6-1.4,0.9-3,0.9-4.6
				c0-2-0.4-3.8-1.2-5.5c-0.8-1.7-2-3.2-3.6-4.4c-1.6-1.2-3.6-2.2-6-2.9c-2.4-0.7-5.2-1-8.4-1H612v52.9h8.9V91.8h6.2l18.4,24.9h10.3
				L636.5,91z M631.5,88.4c-1.7,0.5-3.5,0.8-5.5,0.8h-5.1V67.1h7.8c1.6,0,3.1,0.3,4.5,0.8c1.4,0.5,2.5,1.3,3.5,2.2
				c1,1,1.7,2.1,2.3,3.4c0.6,1.3,0.8,2.8,0.8,4.3c0,1.7-0.3,3.3-1,4.7c-0.7,1.4-1.7,2.6-2.9,3.6C634.6,87.1,633.2,87.9,631.5,88.4z"
				/>
			<polygon class="st0" points="699.1,113.3 671.3,113.3 671.3,89.5 689.9,89.5 689.9,86.1 671.3,86.1 671.3,67.2 699.1,67.2 
				699.1,63.8 662.4,63.8 662.4,116.7 699.1,116.7 			"/>
			<path class="st0" d="M731.1,62.6l-25.5,54.1h4.5l8.3-17.6h22.6l8.1,17.6h9l-24.9-54.1H731.1z M720,95.6l9.9-20.9l9.6,20.9H720z"
				/>
			<polygon class="st0" points="815.3,63.8 795.1,104.4 794.7,104.4 774.1,63.8 765.1,63.8 765.1,116.7 769,116.7 769,73.7 
				769.6,73.7 791.5,116.7 793.3,116.7 815,73.4 815.3,73.4 815.3,116.7 824.2,116.7 824.2,63.8 			"/>
		</g>
		<g>
			<path class="st0" d="M245.7,150.8h9.1c2.4,0,4.4,0.7,5.6,1.9c0.9,0.9,1.4,2,1.4,3.5c0,2.8-1.7,4.2-3.4,4.9
				c2.5,0.8,4.6,2.2,4.6,5.2c0,3.7-3.1,5.8-7.7,5.8h-9.5V150.8z M254.4,160.3c2.9,0,4.9-1.3,4.9-3.9c0-2.1-1.7-3.5-4.7-3.5h-6.5v7.4
				H254.4z M255.3,170c3.2,0,5.2-1.4,5.2-3.9c0-2.3-2-3.7-5.7-3.7h-6.7v7.5H255.3z"/>
			<path class="st0" d="M273.2,150.8h2.4v17.7l12.8-17.7h2.3v21.4h-2.4v-17.7l-12.7,17.7h-2.4V150.8z"/>
			<path class="st0" d="M302.2,150.8h2.4v9.5H317v-9.5h2.4v21.4H317v-9.6h-12.3v9.6h-2.4V150.8z"/>
			<path class="st0" d="M336.5,153h-7.2v-2.2h16.8v2.2H339v19.2h-2.4V153z"/>
			<path class="st0" d="M361.3,150.7h2.3l9.7,21.5h-2.6l-2.5-5.6h-11.6l-2.5,5.6h-2.5L361.3,150.7z M367.3,164.4l-4.9-10.9
				l-4.9,10.9H367.3z"/>
			<path class="st0" d="M389.5,160l-8.2-9.2h3l11.1,12.6v-12.6h2.4v12.6l11.1-12.6h3l-8.2,9.2l8.8,12.2h-3l-7.5-10.4l-4.2,4.7v5.7
				h-2.4v-5.7l-4.2-4.7l-7.4,10.4h-3L389.5,160z"/>
			<path class="st0" d="M421.7,150.8h2.4v9.5h12.3v-9.5h2.4v21.4h-2.4v-9.6h-12.3v9.6h-2.4V150.8z"/>
			<path class="st0" d="M458.3,150.7h2.3l9.7,21.5h-2.6l-2.5-5.6h-11.6l-2.5,5.6h-2.5L458.3,150.7z M464.3,164.4l-4.9-10.9
				l-4.9,10.9H464.3z"/>
			<path class="st0" d="M485,163.6c-3.4-0.6-5.8-2.8-5.8-6.3c0-1.6,0.5-3.2,1.6-4.3c1.3-1.3,3.5-2.2,6.2-2.2h9.1v21.4h-2.4V164h-6.1
				l-6.3,8.2h-2.9L485,163.6z M493.7,161.9v-9h-6.6c-3.5,0-5.6,1.7-5.6,4.5c0,2.8,2.3,4.5,5.6,4.5H493.7z"/>
			<path class="st0" d="M522.3,150.8h2.4l7.8,11.7l7.8-11.7h2.4v21.4h-2.4v-17.3l-7.8,11.4h-0.1l-7.8-11.4v17.3h-2.3V150.8z"/>
			<path class="st0" d="M554.3,150.8h15.4v2.2h-13v7.3h11.7v2.2h-11.7v7.5h13.2v2.2h-15.6V150.8z"/>
			<path class="st0" d="M580.2,150.8h15.3v2.2h-12.9v6.6h6.3c4.5,0,8.1,1.9,8.1,6.2c0,4.2-3.1,6.4-7.9,6.4h-9V150.8z M589,170
				c3.4,0,5.6-1.2,5.6-4.3c0-2.7-2.2-4-5.8-4h-6.3v8.3H589z"/>
			<path class="st0" d="M607.3,150.8h15.4v2.2h-13v7.3h11.7v2.2h-11.7v7.5h13.2v2.2h-15.6V150.8z"/>
			<path class="st0" d="M630,171.9l0.5-2c0.3,0.2,1.2,0.3,1.9,0.3c1.6,0,4.4-1,4.4-15.6v-3.9h13.8v21.4h-2.4V153h-9.1v2.3
				c0,15-3.1,17.1-6.3,17.1C631.9,172.4,630.6,172.1,630,171.9z"/>
			<path class="st0" d="M662.2,150.8h2.4v8.3h5.4c4.6,0,8.3,1.8,8.3,6.3c0,4.2-3.1,6.8-7.9,6.8h-8.2V150.8z M670.3,170
				c3.4,0,5.6-1.5,5.6-4.5c0-2.8-2.2-4.2-5.7-4.2h-5.6v8.7H670.3z"/>
		</g>
	</g>
</g>
</svg>
